<svg xmlns="http://www.w3.org/2000/svg" viewBox="0 0 64 64" id="chronometer"><path fill="#687d87" d="M32.34 0c-5.3 0-9.61 4.31-9.61 9.61s4.31 9.61 9.61 9.61 9.61-4.31 9.61-9.61C41.94 4.31 37.63 0 32.34 0zm0 17.1c-4.13 0-7.49-3.36-7.49-7.49 0-4.13 3.36-7.49 7.49-7.49 4.13 0 7.49 3.36 7.49 7.49 0 4.13-3.36 7.49-7.49 7.49z"></path><path fill="#e5e5e5" d="M29.14 13.43h6.68v4.97h-6.68z"></path><path fill="#324a5e" d="M37.24 13.43h-9.81V10.3c0-1.1.9-2 2-2h5.81c1.1 0 2 .9 2 2v3.13z"></path><path fill="#59b5ac" d="m11.591 23.615 3.493-3.493 2.758 2.758-3.493 3.493z"></path><path fill="#e5e5e5" d="M16.59 18.62 9.91 25.3l-1.56-1.56c-.71-.71-.71-1.87 0-2.58l4.1-4.1c.71-.71 1.87-.71 2.58 0l1.56 1.56z"></path><circle cx="32.34" cy="40.15" r="23.85" fill="#3582a8"></circle><circle cx="32.34" cy="40.15" r="19.62" fill="#eff3f5"></circle><path fill="#445b69" d="M31.28 22.36h2.11v4.69h-2.11zM14.54 39.09h4.69v2.11h-4.69zM31.28 53.25h2.11v4.69h-2.11zM45.44 39.09h4.69v2.11h-4.69z"></path><g fill="#506c72"><path d="m22.829 25.098 1.22-.705 1.676 2.901-1.221.705zM16.576 31.868l.705-1.221 2.902 1.675-.705 1.22zM16.574 48.444l2.901-1.675.705 1.221-2.901 1.675zM22.832 55.213l1.675-2.902 1.221.705-1.674 2.901zM38.948 53.018l1.22-.705 1.676 2.901-1.221.705zM44.496 47.988l.705-1.221 2.902 1.675-.705 1.22zM44.496 32.323l2.901-1.674.705 1.221-2.902 1.675zM38.944 27.285l1.674-2.901 1.221.705-1.674 2.901z"></path></g><path fill="#c2382e" d="M34.55 41.11c0 1.28-.99 2.32-2.21 2.32s-2.21-1.04-2.21-2.32c0-1.28 2.21-12.15 2.21-12.15s2.21 10.86 2.21 12.15z"></path><path fill="#e5e5e5" d="M33.63 41.13c0 .72-.58 1.3-1.3 1.3-.72 0-1.3-.58-1.3-1.3 0-.72.58-1.3 1.3-1.3.72 0 1.3.58 1.3 1.3z"></path></svg>